<svg width="78" height="78" viewBox="0 0 78 78" fill="none" xmlns="http://www.w3.org/2000/svg">
<circle cx="39" cy="39" r="39" fill="#1A3C6F"/>
<path d="M68.7647 21.0952L41 21.0952M65.4706 15L55.5882 15H49M68.7647 17.6667L57.7059 17.6667H46.6471M71.1176 24.9048H57.4706L43.8235 24.9048M51.3529 28.7143H61.2353M61.2353 28.7143C65.0946 28.7143 71.1176 28.7143 71.1176 28.7143H61.2353ZM73 33.2857H63.1176H53.2353M73 39H63.1176H55.5882" stroke="#A8A8A8"/>
<path d="M68.7647 21.0952L41 21.0952M65.4706 15L55.5882 15H49M68.7647 17.6667L57.7059 17.6667H46.6471M71.1176 24.9048H57.4706L43.8235 24.9048M51.3529 28.7143H61.2353M61.2353 28.7143C65.0946 28.7143 71.1176 28.7143 71.1176 28.7143H61.2353ZM73 33.2857H63.1176H53.2353M73 39H63.1176H55.5882" stroke="#D3D3D3"/>
<path d="M34.5 47H5M31 39H20.5H13.5M34.5 42.5H11M37 52H22.5H8M16 57H26.5M26.5 57C30.6005 57 37 57 37 57H26.5ZM39 63H28.5H18M39 70.5H28.5H20.5" stroke="#A8A8A8"/>
<path d="M34.5 47H5M31 39H20.5H13.5M34.5 42.5H11M37 52H22.5H8M16 57H26.5M26.5 57C30.6005 57 37 57 37 57H26.5ZM39 63H28.5H18M39 70.5H28.5H20.5" stroke="#F0F0F0"/>
</svg>
